<?xml version="1.0" standalone="no"?>
<!DOCTYPE svg PUBLIC "-//W3C//DTD SVG 20010904//EN"
 "http://www.w3.org/TR/2001/REC-SVG-20010904/DTD/svg10.dtd">
<svg version="1.0" xmlns="http://www.w3.org/2000/svg"
 width="240.000000pt" height="240.000000pt" viewBox="0 0 240.000000 240.000000"
 preserveAspectRatio="xMidYMid meet">

<g transform="translate(0.000000,240.000000) scale(0.100000,-0.100000)"
fill="#000000" stroke="none">
<path d="M1230 1700 c-586 -220 -1092 -409 -1124 -421 -101 -37 -131 -89 -83
-144 18 -22 73 -42 302 -113 l280 -87 116 -344 c116 -346 125 -365 176 -377
34 -9 63 12 221 164 83 78 155 142 161 142 6 0 136 -91 288 -202 162 -117 294
-206 315 -212 44 -12 97 8 122 46 13 21 396 1839 396 1881 0 28 -45 67 -77 66
-15 0 -507 -180 -1093 -399z m738 29 c2 -12 -503 -477 -999 -919 -27 -24 -29
-31 -45 -193 -9 -92 -19 -165 -21 -163 -2 2 -40 122 -84 266 -57 187 -77 266
-69 274 6 6 272 178 593 383 347 222 590 372 602 370 11 -1 21 -9 23 -18z"/>
</g>
</svg>
